<svg width="473" height="107" viewBox="0 0 473 107" fill="none" xmlns="http://www.w3.org/2000/svg">
<path d="M18.1309 66L51.8809 87.75V106.5L0.880859 73.5V58.5L51.8809 25.5V44.25L18.1309 66Z" fill="#FFA600"/>
<path d="M115.602 0L79.6016 105H60.1016L96.1016 0H115.602Z" fill="#FF4000"/>
<path d="M218.944 71.9766C218.944 75.3854 218.501 78.4622 217.616 81.207C216.775 83.9076 215.646 86.2982 214.229 88.3789C212.813 90.4596 211.152 92.2305 209.249 93.6914C207.345 95.1524 205.375 96.3477 203.339 97.2774C201.302 98.207 199.221 98.8932 197.096 99.3359C195.016 99.7787 193.046 100 191.186 100H124.581V82.7344H191.186C194.507 82.7344 197.074 81.7604 198.889 79.8125C200.749 77.8646 201.678 75.2526 201.678 71.9766C201.678 70.3828 201.435 68.9219 200.948 67.5938C200.461 66.2656 199.753 65.1146 198.823 64.1406C197.938 63.1667 196.831 62.4141 195.503 61.8828C194.219 61.3516 192.78 61.0859 191.186 61.0859H151.475C148.686 61.0859 145.676 60.599 142.444 59.625C139.212 58.6068 136.202 56.9909 133.413 54.7774C130.668 52.5638 128.366 49.6641 126.507 46.0781C124.691 42.4922 123.784 38.1094 123.784 32.9297C123.784 27.75 124.691 23.3893 126.507 19.8477C128.366 16.2617 130.668 13.362 133.413 11.1484C136.202 8.89063 139.212 7.27475 142.444 6.30079C145.676 5.28256 148.686 4.77344 151.475 4.77344H210.245V22.0391H151.475C148.199 22.0391 145.632 23.0352 143.772 25.0274C141.957 27.0195 141.05 29.6537 141.05 32.9297C141.05 36.25 141.957 38.8841 143.772 40.832C145.632 42.7357 148.199 43.6875 151.475 43.6875H191.319C193.178 43.7318 195.148 43.9974 197.229 44.4844C199.31 44.9271 201.369 45.6354 203.405 46.6094C205.486 47.5833 207.456 48.8229 209.315 50.3281C211.175 51.7891 212.813 53.5599 214.229 55.6406C215.69 57.7214 216.841 60.112 217.682 62.8125C218.523 65.513 218.944 68.5677 218.944 71.9766Z" fill="white"/>
<path d="M309.456 75.7617C309.456 78.7279 309.079 81.4063 308.327 83.7969C307.574 86.1432 306.578 88.224 305.339 90.0391C304.099 91.8099 302.66 93.3372 301.022 94.6211C299.384 95.8607 297.658 96.8789 295.842 97.6758C294.072 98.4727 292.257 99.0703 290.397 99.4688C288.582 99.8229 286.856 100 285.217 100H254.073C251.682 100 249.07 99.5794 246.237 98.7383C243.404 97.8971 240.77 96.5247 238.335 94.6211C235.944 92.6732 233.93 90.1719 232.292 87.1172C230.698 84.0182 229.901 80.2331 229.901 75.7617V52.3867C229.901 47.9596 230.698 44.2188 232.292 41.1641C233.93 38.0651 235.944 35.5638 238.335 33.6602C240.77 31.7122 243.404 30.3177 246.237 29.4766C249.07 28.6354 251.682 28.2149 254.073 28.2149H285.217C289.645 28.2149 293.408 29.0117 296.507 30.6055C299.606 32.1992 302.107 34.2135 304.01 36.6484C305.914 39.0391 307.287 41.651 308.128 44.4844C309.013 47.3177 309.456 49.9518 309.456 52.3867V75.7617ZM292.19 52.5195C292.19 50.1289 291.592 48.3581 290.397 47.207C289.202 46.056 287.475 45.4805 285.217 45.4805H254.206C251.904 45.4805 250.155 46.0781 248.96 47.2734C247.764 48.4245 247.167 50.1289 247.167 52.3867V75.7617C247.167 78.0195 247.764 79.7461 248.96 80.9414C250.155 82.1367 251.904 82.7344 254.206 82.7344H285.217C287.564 82.7344 289.313 82.1367 290.464 80.9414C291.615 79.7461 292.19 78.0195 292.19 75.7617V52.5195Z" fill="white"/>
<path d="M387.018 45.4805H348.171C345.824 45.4805 344.053 46.0781 342.858 47.2734C341.663 48.4245 341.065 50.1289 341.065 52.3867V100H323.8V52.3867C323.8 49.4206 324.176 46.7643 324.928 44.418C325.681 42.0716 326.677 40.013 327.917 38.2422C329.201 36.4271 330.662 34.8997 332.3 33.6602C333.938 32.3763 335.642 31.3359 337.413 30.5391C339.228 29.7422 341.043 29.1667 342.858 28.8125C344.717 28.4141 346.444 28.2149 348.038 28.2149H387.018V45.4805Z" fill="white"/>
<path d="M471.88 33.5274C472.588 35.1654 472.766 36.8255 472.411 38.5078C472.102 40.1901 471.349 41.651 470.154 42.8906L430.243 82.7344H471.747V100H409.458C407.687 100 406.072 99.513 404.611 98.5391C403.194 97.5208 402.131 96.237 401.423 94.6875C400.759 93.0495 400.582 91.3893 400.892 89.707C401.246 87.9805 402.065 86.4753 403.349 85.1914L443.06 45.4805H401.556V28.2149H463.978C465.704 28.2149 467.276 28.6797 468.693 29.6094C470.154 30.5391 471.216 31.8451 471.88 33.5274Z" fill="white"/>
</svg>
